<?xml version="1.0" encoding="UTF-8" standalone="no"?><!DOCTYPE svg PUBLIC "-//W3C//DTD SVG 1.1//EN" "http://www.w3.org/Graphics/SVG/1.1/DTD/svg11.dtd"><svg width="100%" height="100%" viewBox="0 0 200 150" version="1.1" xmlns="http://www.w3.org/2000/svg" xmlns:xlink="http://www.w3.org/1999/xlink" xml:space="preserve" xmlns:serif="http://www.serif.com/" style="fill-rule:evenodd;clip-rule:evenodd;stroke-linejoin:round;stroke-miterlimit:2;"><g id="ImageSizeMin"><rect x="0" y="0" width="200" height="150" style="fill:#fff;fill-opacity:0;"/><path d="M200,0l-200,0l0,150l200,0l-0,-150Zm-4,4l-0,142c-0,0 -164.126,0 -192,0c0,0 0,-142 0,-142l192,-0Z"/><rect x="0" y="0" width="52" height="52"/><path d="M52,0l-52,0l0,52l52,0l0,-52Zm-4,4l0,44c0,0 -44,0 -44,0c0,0 0,-44 0,-44l44,-0Z"/></g></svg>