<?xml version="1.0" encoding="UTF-8" standalone="no"?><!DOCTYPE svg PUBLIC "-//W3C//DTD SVG 1.1//EN" "http://www.w3.org/Graphics/SVG/1.1/DTD/svg11.dtd"><svg width="100%" height="100%" viewBox="0 0 200 150" version="1.1" xmlns="http://www.w3.org/2000/svg" xmlns:xlink="http://www.w3.org/1999/xlink" xml:space="preserve" xmlns:serif="http://www.serif.com/" style="fill-rule:evenodd;clip-rule:evenodd;stroke-miterlimit:1.5;"><g id="NumImagesMax"><rect x="0" y="0" width="200" height="150" style="fill:#fff;fill-opacity:0;"/><path d="M200,0l-200,0l0,150l200,0l-0,-150Zm-4,4l-0,142c-0,0 -164.126,0 -192,0c0,0 0,-142 0,-142l192,-0Z"/><path d="M50,-0l0,150" style="fill:none;stroke:#000;stroke-width:4px;"/><path d="M100,0l0,150" style="fill:none;stroke:#000;stroke-width:4px;"/><path d="M150,-0l0,150" style="fill:none;stroke:#000;stroke-width:4px;"/><path d="M175,-0l0,150" style="fill:none;stroke:#000;stroke-width:4px;"/><path d="M25,0l0,150" style="fill:none;stroke:#000;stroke-width:4px;"/><path d="M75,0l0,150" style="fill:none;stroke:#000;stroke-width:4px;"/><path d="M125,0l0,150" style="fill:none;stroke:#000;stroke-width:4px;"/><path d="M-0,50l200,-0" style="fill:none;stroke:#000;stroke-width:4px;"/><path d="M-0,100l200,-0" style="fill:none;stroke:#000;stroke-width:4px;"/><path d="M0,125l200,-0" style="fill:none;stroke:#000;stroke-width:4px;"/><path d="M-0,25l200,0" style="fill:none;stroke:#000;stroke-width:4px;"/><path d="M0,75l200,-0" style="fill:none;stroke:#000;stroke-width:4px;"/></g></svg>